<svg id="Layer_1" data-name="Layer 1" xmlns="http://www.w3.org/2000/svg" viewBox="0 0 600 600"><defs><style>.cls-1{fill:#fff;}</style></defs><path class="cls-1" d="M18.72,585.78l-3.83-1.91C109.23,386,8.08,419.49,28.77,246.71,53.79,93.59,194.44-8.42,348,14.16c421.2,82.23,220.31,705.57-170.7,526C124,541.57,71.19,572.74,18.72,585.78Zm69.56-72c96.66-47.37,110.13-1.85,200.35,9.12,126.07,9.18,237-84.32,249-210.13,10.38-407-612-273.84-434,92.63C127.1,442.5,95.83,475.33,88.28,513.77Z"/><path class="cls-1" d="M165.5,222.25c12.23-90.24,79.7-93.79,96.6.85,6.55,21-31.21,31-21.65,51,25.23,41.65,94,127.67,131.77,58.39,21.66-14.29,51.58,20.4,74.11,27.43,15.44,29.13-14.45,62.31-45.22,68.47C289.65,434.1,181.88,328.76,165.5,222.25Z"/></svg>