<svg height="512" fill="rgb(0,175,239)" viewBox="0 0 512 512" width="512" xmlns="http://www.w3.org/2000/svg"><path d="m456 233.38v-161.38a8 8 0 0 0 -8-8h-80v-48a8 8 0 0 0 -8-8h-208a8 8 0 0 0 -8 8v48h-80a8 8 0 0 0 -8 8v73.38a23.99 23.99 0 0 0 0 45.24v72.38a8 8 0 0 0 8 8h80v41a8 8 0 0 0 8 8h96v56h-96a8 8 0 0 0 -8 8v112a8 8 0 0 0 8 8h208a8 8 0 0 0 8-8v-48h80a8 8 0 0 0 8-8v-161.38a23.99 23.99 0 0 0 0-45.24zm-296-209.38h192v96h-192zm-96 152a8 8 0 1 1 8-8 8.011 8.011 0 0 1 -8 8zm80 24v55h-72v-64.38a23.99 23.99 0 0 0 0-45.24v-65.38h72v48a8 8 0 0 0 8 8h96v56h-96a8 8 0 0 0 -8 8zm16 104v-96h192v96zm192 184h-192v-96h192zm88-56h-72v-48a8 8 0 0 0 -8-8h-96v-56h96a8 8 0 0 0 8-8v-112a8 8 0 0 0 -8-8h-96v-56h96a8 8 0 0 0 8-8v-48h72v153.38a23.99 23.99 0 0 0 0 45.24zm8-168a8 8 0 1 1 8-8 8.011 8.011 0 0 1 -8 8z"/></svg>